<?xml version="1.0" encoding="UTF-8"?>
<svg version="1.1" xmlns="http://www.w3.org/2000/svg" width="500" height="500">
<path d="M0 0 C165 0 330 0 500 0 C500 165 500 330 500 500 C335 500 170 500 0 500 C0 335 0 170 0 0 Z " fill="#FEFEFE" transform="translate(0,0)"/>
<path d="M0 0 C0.7848175 -0.00456207 1.56963501 -0.00912415 2.37823486 -0.01382446 C17.72454993 -0.0456115 33.91398425 0.76025021 47.625 8.375 C47.625 9.035 47.625 9.695 47.625 10.375 C48.50414062 10.46910156 49.38328125 10.56320313 50.2890625 10.66015625 C53.94126793 11.4427717 55.98988517 12.63852818 59 14.8125 C59.87398437 15.42996094 60.74796875 16.04742187 61.6484375 16.68359375 C62.30070313 17.24175781 62.95296875 17.79992187 63.625 18.375 C63.625 19.035 63.625 19.695 63.625 20.375 C64.6459375 20.4059375 64.6459375 20.4059375 65.6875 20.4375 C70.13319299 21.85633819 72.56612158 24.95840072 75.625 28.375 C76.3675 29.2 77.11 30.025 77.875 30.875 C79.98303989 33.88648556 81.22071537 36.98131214 82.625 40.375 C83.32625 41.4475 84.0275 42.52 84.75 43.625 C87.47417496 48.16875747 87.43767649 53.19550499 87.625 58.375 C88.285 58.375 88.945 58.375 89.625 58.375 C90.52015294 65.75635059 90.77048424 73.02815059 90.7668457 80.45898438 C90.77032013 81.62456375 90.77379456 82.79014313 90.77737427 83.99104309 C90.78468911 86.50580882 90.79005707 89.02058083 90.79366493 91.53535461 C90.80087601 95.52112922 90.81622706 99.50682131 90.83500671 103.49255371 C90.84134202 104.86344142 90.84766767 106.23432918 90.85398388 107.60521698 C90.85714969 108.2911943 90.8603155 108.97717161 90.86357725 109.68393612 C90.90547911 118.94699086 90.93863872 128.21000114 90.95092773 137.47314453 C90.95933288 143.74481631 90.981904 150.01626879 91.0202834 156.28783083 C91.03994311 159.59687873 91.0502524 162.90552986 91.04744911 166.21464539 C91.04508959 169.90710285 91.06731131 173.59867771 91.0949707 177.29101562 C91.08836929 178.37079178 91.08176788 179.45056793 91.07496643 180.56306458 C91.15090025 186.75955288 92.0668093 191.55671624 94.64656353 197.20949554 C95.99527714 200.19450828 96.79949577 203.2105671 97.625 206.375 C98.285 206.375 98.945 206.375 99.625 206.375 C102.625 212.125 102.625 212.125 102.625 214.375 C103.285 214.375 103.945 214.375 104.625 214.375 C108.38127693 218.55243525 110.72338765 223.39214774 110.45703125 229.0546875 C108.65158426 234.08959602 103.90232898 237.40891777 99.625 240.375 C98.965 240.375 98.305 240.375 97.625 240.375 C97.625 241.035 97.625 241.695 97.625 242.375 C96.01117052 243.83159977 94.33136784 245.21548951 92.625 246.5625 C88.34924134 249.97207271 84.21400781 253.46491176 80.18359375 257.16015625 C78.625 258.375 78.625 258.375 76.625 258.375 C76.295 259.365 75.965 260.355 75.625 261.375 C72.22249845 264.3412834 69.93750558 266.19485218 65.4375 266.8125 C60.28121664 266.22079535 58.16832558 263.96943124 54.625 260.375 C53.75875 259.529375 52.8925 258.68375 52 257.8125 C51.21625 257.008125 50.4325 256.20375 49.625 255.375 C48.779375 254.529375 47.93375 253.68375 47.0625 252.8125 C46.258125 252.008125 45.45375 251.20375 44.625 250.375 C43.944375 249.75625 43.26375 249.1375 42.5625 248.5 C39.07354644 244.67340578 36.85742784 240.02589133 34.625 235.375 C30.71130027 237.5391284 27.67274206 240.04745807 24.4375 243.125 C11.16367302 255.375 11.16367302 255.375 5.625 255.375 C5.625 256.035 5.625 256.695 5.625 257.375 C3.975 257.705 2.325 258.035 0.625 258.375 C0.625 259.035 0.625 259.695 0.625 260.375 C-0.98181641 260.79072266 -0.98181641 260.79072266 -2.62109375 261.21484375 C-4.01827627 261.58054924 -5.41540915 261.94644446 -6.8125 262.3125 C-7.51955078 262.49490234 -8.22660156 262.67730469 -8.95507812 262.86523438 C-12.45074861 263.55649374 -12.45074861 263.55649374 -15.375 265.375 C-17.37458364 265.41580783 -19.37545254 265.41754356 -21.375 265.375 C-21.375 266.035 -21.375 266.695 -21.375 267.375 C-28.09850491 268.15382242 -34.73200917 268.56760647 -41.5 268.5625 C-42.85001099 268.5634668 -42.85001099 268.5634668 -44.22729492 268.56445312 C-52.39252817 268.50091607 -60.31342487 267.65208121 -68.375 266.375 C-68.375 265.715 -68.375 265.055 -68.375 264.375 C-69.365 264.375 -70.355 264.375 -71.375 264.375 C-71.375 263.715 -71.375 263.055 -71.375 262.375 C-72.6125 262.230625 -73.85 262.08625 -75.125 261.9375 C-85.16646223 259.69200766 -94.6757248 250.72276191 -100.375 242.375 C-100.375 241.385 -100.375 240.395 -100.375 239.375 C-101.035 239.375 -101.695 239.375 -102.375 239.375 C-115.49079151 223.11141853 -114.51229365 199.03748222 -113.375 179.375 C-112.63964415 173.84380412 -111.22169452 168.64067515 -109.375 163.375 C-109.045 162.385 -108.715 161.395 -108.375 160.375 C-107.715 160.375 -107.055 160.375 -106.375 160.375 C-106.26542969 159.488125 -106.15585938 158.60125 -106.04296875 157.6875 C-103.40890618 144.62501428 -89.41498003 132.7513612 -79 125.25 C-68.43512658 118.375 -68.43512658 118.375 -63.375 118.375 C-63.375 117.715 -63.375 117.055 -63.375 116.375 C-60.93340855 115.63810117 -58.49101574 114.90419043 -56.046875 114.17578125 C-53.88126051 113.52673012 -51.7210037 112.85982082 -49.5625 112.1875 C-46.66428985 111.44874055 -44.34375547 111.19507543 -41.375 111.375 C-41.375 110.715 -41.375 110.055 -41.375 109.375 C-40.80990723 109.28935791 -40.24481445 109.20371582 -39.66259766 109.11547852 C-37.10785367 108.72630182 -34.55393253 108.33196515 -32 107.9375 C-31.11054688 107.80279297 -30.22109375 107.66808594 -29.3046875 107.52929688 C-28.45390625 107.39716797 -27.603125 107.26503906 -26.7265625 107.12890625 C-25.94104004 107.00845947 -25.15551758 106.8880127 -24.34619141 106.76391602 C-22.30888316 106.45261762 -22.30888316 106.45261762 -20.375 105.375 C-17.43771741 105.08931141 -14.51375191 104.85426743 -11.5703125 104.65625 C-10.25702469 104.56204773 -10.25702469 104.56204773 -8.91720581 104.46594238 C-6.1117385 104.26494287 -3.30593026 104.06942288 -0.5 103.875 C2.29876894 103.68034065 5.09741439 103.48440131 7.89578247 103.28405762 C9.63844268 103.15932901 11.38134083 103.03787209 13.1244812 102.92004395 C14.31559006 102.8349054 14.31559006 102.8349054 15.53076172 102.74804688 C16.22644257 102.69998901 16.92212341 102.65193115 17.6388855 102.60241699 C19.9844892 102.37763433 19.9844892 102.37763433 23.625 101.375 C23.625 90.155 23.625 78.935 23.625 67.375 C22.965 67.375 22.305 67.375 21.625 67.375 C21.625 66.385 21.625 65.395 21.625 64.375 C20.965 64.375 20.305 64.375 19.625 64.375 C18.27221885 62.38810269 16.93931695 60.38754782 15.625 58.375 C14.965 58.045 14.305 57.715 13.625 57.375 C13.625 56.715 13.625 56.055 13.625 55.375 C12.7175 55.08625 11.81 54.7975 10.875 54.5 C7.625 53.375 7.625 53.375 5.625 52.3125 C-2.72753556 48.39724896 -14.79549618 49.66713728 -23.375 52.375 C-27.26192508 54.13466221 -30.9942261 55.96773643 -34.00390625 59.03515625 C-35.375 60.375 -35.375 60.375 -37.375 60.375 C-37.560625 61.3340625 -37.560625 61.3340625 -37.75 62.3125 C-37.95625 62.993125 -38.1625 63.67375 -38.375 64.375 C-39.365 64.87 -39.365 64.87 -40.375 65.375 C-42.46123042 68.8520507 -43.55127297 71.98903312 -44.25 75.9375 C-45.12214182 80.35784271 -46.85051399 82.48311404 -50.375 85.375 C-50.705 85.705 -51.035 86.035 -51.375 86.375 C-53.15793062 86.39172261 -54.94162336 86.33782927 -56.72265625 86.25390625 C-57.80224609 86.20556641 -58.88183594 86.15722656 -59.99414062 86.10742188 C-61.13044922 86.05134766 -62.26675781 85.99527344 -63.4375 85.9375 C-64.57767578 85.88529297 -65.71785156 85.83308594 -66.89257812 85.77929688 C-69.72030023 85.64915067 -72.54771 85.51417121 -75.375 85.375 C-75.375 84.715 -75.375 84.055 -75.375 83.375 C-76.16261719 83.39820313 -76.95023438 83.42140625 -77.76171875 83.4453125 C-97.20743664 83.76749007 -97.20743664 83.76749007 -104.75 79.4375 C-107.26718093 74.69358208 -106.2715703 70.52839565 -105.375 65.375 C-105.189375 64.158125 -105.00375 62.94125 -104.8125 61.6875 C-104.668125 60.924375 -104.52375 60.16125 -104.375 59.375 C-103.715 59.375 -103.055 59.375 -102.375 59.375 C-102.045 57.065 -101.715 54.755 -101.375 52.375 C-100.715 52.375 -100.055 52.375 -99.375 52.375 C-99.33375 51.570625 -99.2925 50.76625 -99.25 49.9375 C-96.22820215 37.6344659 -83.18270181 25.70422121 -73.375 18.375 C-72.385 18.375 -71.395 18.375 -70.375 18.375 C-70.375 17.715 -70.375 17.055 -70.375 16.375 C-69.446875 16.106875 -68.51875 15.83875 -67.5625 15.5625 C-64.45385623 14.6782444 -64.45385623 14.6782444 -63.05078125 12.9375 C-60.73281419 10.77622536 -58.37887028 10.14829674 -55.375 9.1875 C-54.323125 8.84332031 -53.27125 8.49914062 -52.1875 8.14453125 C-49.375 7.375 -49.375 7.375 -46.375 7.375 C-46.375 6.715 -46.375 6.055 -46.375 5.375 C-43.98240277 4.71465545 -41.58698701 4.07194807 -39.1875 3.4375 C-38.53330078 3.25509766 -37.87910156 3.07269531 -37.20507812 2.88476562 C-25.17979597 -0.2497866 -12.35943427 0.06977126 0 0 Z " fill="#020202" transform="translate(254.375,74.625)"/>
<path d="M0 0 C4.17451972 0.37106842 6.94298088 1.06055854 10 4 C10 4.66 10 5.32 10 6 C10.53625 6.268125 11.0725 6.53625 11.625 6.8125 C14.41666667 8.20833333 17.20833333 9.60416667 20 11 C20 11.66 20 12.32 20 13 C20.5878125 13.11988281 21.175625 13.23976563 21.78125 13.36328125 C24.06933524 14.01989726 25.53853548 14.8583497 27.5 16.1875 C32.76632974 19.58990405 38.37276222 22.25390796 44 25 C46.00092764 25.99814256 48.00118765 26.99762823 50 28 C50 28.66 50 29.32 50 30 C50.845625 30.103125 51.69125 30.20625 52.5625 30.3125 C56.36572147 31.07314429 59.46356184 32.41470014 63 34 C68.88640598 36.38405587 74.90196472 38.23806767 81 40 C81 40.66 81 41.32 81 42 C83.64 42.33 86.28 42.66 89 43 C89 43.66 89 44.32 89 45 C91.97 45.33 94.94 45.66 98 46 C98 46.66 98 47.32 98 48 C98.94359375 48.04898438 99.8871875 48.09796875 100.859375 48.1484375 C109.76864993 48.6672507 118.45756492 49.53444783 127.18847656 51.49023438 C133.519284 52.8659531 139.65753338 53.40699551 146.125 53.625 C147.55972656 53.68300781 147.55972656 53.68300781 149.0234375 53.7421875 C151.34878199 53.83520128 153.67414335 53.92103771 156 54 C156 54.66 156 55.32 156 56 C172.53707689 55.69205649 188.72606876 54.97758749 205.12109375 52.62109375 C209.13369856 52.05758211 212.95221328 51.87194072 217 52 C217 51.34 217 50.68 217 50 C224.59 49.01 232.18 48.02 240 47 C240.33 46.01 240.66 45.02 241 44 C243.80078125 43.05078125 243.80078125 43.05078125 247.3125 42.3125 C248.46363281 42.06113281 249.61476563 41.80976563 250.80078125 41.55078125 C254 41 254 41 258 41 C258 40.34 258 39.68 258 39 C260.89315371 37.84731871 263.78995487 36.70409257 266.6875 35.5625 C267.50412109 35.23701172 268.32074219 34.91152344 269.16210938 34.57617188 C273.08245663 33.03660231 276.80540049 31.60655105 281 31 C281 30.34 281 29.68 281 29 C292.98795664 23.1252509 292.98795664 23.1252509 299 23 C302 25 302 25 302.8125 28.5625 C302.62219578 32.78725375 300.92235048 34.55782706 297.875 37.375 C291.51709618 42.60079844 284.7833952 47.34646229 278 52 C277.44376953 52.38978027 276.88753906 52.77956055 276.31445312 53.18115234 C272.22916667 56 272.22916667 56 270 56 C269.67 56.99 269.34 57.98 269 59 C267.109375 60.09765625 267.109375 60.09765625 264.75 61.0625 C263.93789063 61.39894531 263.12578125 61.73539062 262.2890625 62.08203125 C261.53367187 62.38496094 260.77828125 62.68789063 260 63 C259.05125 63.4125 258.1025 63.825 257.125 64.25 C255 65 255 65 252 65 C252 65.66 252 66.32 252 67 C249.525 67.495 249.525 67.495 247 68 C247 68.66 247 69.32 247 70 C245.68 70 244.36 70 243 70 C243 70.66 243 71.32 243 72 C241.27318563 72.50806447 239.54342021 73.00610467 237.8125 73.5 C236.84957031 73.7784375 235.88664063 74.056875 234.89453125 74.34375 C232.14654124 74.96677608 229.80401584 75.12302812 227 75 C227 75.66 227 76.32 227 77 C222.64948401 78.1394317 218.29401382 79.25874023 213.9375 80.375 C212.72771484 80.69210937 211.51792969 81.00921875 210.27148438 81.3359375 C195.84776841 85.00882008 182.0575856 86.33604239 167.24951172 86.26074219 C164.76634983 86.25007027 162.28392072 86.26068081 159.80078125 86.2734375 C148.42237943 86.28185472 137.28861773 85.39794166 126 84 C126 83.34 126 82.68 126 82 C125.36835938 81.97421875 124.73671875 81.9484375 124.0859375 81.921875 C116.01900994 81.41042714 108.69232299 79.41437875 101 77 C101 76.34 101 75.68 101 75 C99.783125 74.938125 98.56625 74.87625 97.3125 74.8125 C88.6778137 73.869789 80.65154494 69.92328092 73 66 C73 65.34 73 64.68 73 64 C72.195625 63.7525 71.39125 63.505 70.5625 63.25 C66.25675857 61.73921353 62.14635993 59.89811144 58 58 C58 57.34 58 56.68 58 56 C57.27039063 55.73445313 56.54078125 55.46890625 55.7890625 55.1953125 C53.00661034 54.002833 50.82804414 52.63889462 48.375 50.875 C47.50875 50.25367188 46.6425 49.63234375 45.75 48.9921875 C44.8425 48.33476562 43.935 47.67734375 43 47 C42.071875 46.34257812 41.14375 45.68515625 40.1875 45.0078125 C34.50079223 40.94813501 29.18923507 36.67141332 24 32 C22.77344879 30.95525492 21.54436441 29.91347494 20.3125 28.875 C14.77317493 24.11989398 9.99030722 18.78617357 5.18359375 13.3046875 C3.11793398 10.96986224 3.11793398 10.96986224 0.7421875 9.421875 C0.16726562 8.95265625 -0.40765625 8.4834375 -1 8 C-1.3125 4.375 -1.3125 4.375 -1 1 C-0.67 0.67 -0.34 0.34 0 0 Z " fill="#F89B22" transform="translate(85,344)"/>
<path d="M0 0 C0.04966586 5.14118055 0.08584495 10.28221951 0.10986328 15.42358398 C0.11988268 17.17035355 0.13350195 18.9171065 0.15087891 20.66381836 C0.17530669 23.18347285 0.18652389 25.70290439 0.1953125 28.22265625 C0.20563507 28.99585709 0.21595764 29.76905792 0.22659302 30.56568909 C0.22807454 37.82548496 -1.88520316 43.95120937 -4.5 50.6875 C-4.9228125 51.78449219 -5.345625 52.88148438 -5.78125 54.01171875 C-6.76032547 56.41233648 -7.79509706 58.70733746 -9 61 C-9.66 61 -10.32 61 -11 61 C-11.226875 61.70125 -11.45375 62.4025 -11.6875 63.125 C-14.15192933 68.52327378 -18.12633374 72.66538625 -23 76 C-23.99 76 -24.98 76 -26 76 C-26 76.66 -26 77.32 -26 78 C-32.13497701 82.51101251 -39.62894568 82.68812058 -47 82 C-49.53992824 81.22759645 -51.61648291 80.21608015 -54 79 C-54.99 78.67 -55.98 78.34 -57 78 C-58.70884005 76.37660195 -60.37446717 74.70680947 -62 73 C-62.53625 72.505 -63.0725 72.01 -63.625 71.5 C-70.82549336 63.64491634 -70.22141472 52.62596756 -70.16796875 42.578125 C-69.99983102 38.99640026 -69.56709397 35.5386664 -69 32 C-68.34 32 -67.68 32 -67 32 C-66.34 29.03 -65.68 26.06 -65 23 C-64.34 23 -63.68 23 -63 23 C-62.91105469 22.4121875 -62.82210937 21.824375 -62.73046875 21.21875 C-60.82503318 15.43111683 -53.11757904 10.97533665 -48 8 C-47.01 8 -46.02 8 -45 8 C-45 7.34 -45 6.68 -45 6 C-37.73086095 3.35434162 -30.73136437 1.6064968 -23.0625 0.75 C-22.02826904 0.63035889 -22.02826904 0.63035889 -20.97314453 0.50830078 C-13.99411622 -0.18591453 -7.00605941 -0.067324 0 0 Z " fill="#FAFAFA" transform="translate(279,214)"/>
<path d="M0 0 C1.73828125 1.84375 1.73828125 1.84375 2.12890625 4.98046875 C2.0825 6.15222656 2.03609375 7.32398438 1.98828125 8.53125 C1.9521875 9.71074219 1.91609375 10.89023437 1.87890625 12.10546875 C1.8325 13.00910156 1.78609375 13.91273438 1.73828125 14.84375 C1.07828125 14.84375 0.41828125 14.84375 -0.26171875 14.84375 C-0.19984375 15.730625 -0.13796875 16.6175 -0.07421875 17.53125 C-0.03761667 23.4363851 -1.82537804 29.15823468 -3.26171875 34.84375 C-3.92171875 34.84375 -4.58171875 34.84375 -5.26171875 34.84375 C-5.36484375 35.545 -5.46796875 36.24625 -5.57421875 36.96875 C-6.35530878 40.23512647 -7.68230618 42.8909352 -9.26171875 45.84375 C-9.92171875 45.84375 -10.58171875 45.84375 -11.26171875 45.84375 C-11.53628906 46.41738281 -11.81085938 46.99101562 -12.09375 47.58203125 C-16.93859152 56.9638481 -16.93859152 56.9638481 -21.2109375 58.58203125 C-23.13671875 58.84375 -23.13671875 58.84375 -26.26171875 58.84375 C-26.26171875 57.19375 -26.26171875 55.54375 -26.26171875 53.84375 C-25.60171875 53.84375 -24.94171875 53.84375 -24.26171875 53.84375 C-23.60171875 50.54375 -22.94171875 47.24375 -22.26171875 43.84375 C-21.60171875 43.84375 -20.94171875 43.84375 -20.26171875 43.84375 C-19.78216366 41.72000604 -19.30510762 39.59567055 -18.83984375 37.46875 C-18.46754396 35.77830771 -18.08305852 34.09047984 -17.68359375 32.40625 C-16.2809298 26.15437638 -16.04287699 20.23879245 -16.26171875 13.84375 C-21.03498228 11.3737891 -25.48402222 11.58639996 -30.71875 11.6484375 C-31.6217131 11.6512674 -32.52467621 11.65409729 -33.45500183 11.65701294 C-36.32821109 11.66817393 -39.2011043 11.69327103 -42.07421875 11.71875 C-44.02668819 11.72878507 -45.97916254 11.73791 -47.93164062 11.74609375 C-52.70845441 11.76809992 -57.48503306 11.80260169 -62.26171875 11.84375 C-61.45751953 7.03710938 -61.45751953 7.03710938 -59.6953125 5.296875 C-54.77917275 2.33372227 -51.00525328 1.15143935 -45.26171875 0.84375 C-45.26171875 0.18375 -45.26171875 -0.47625 -45.26171875 -1.15625 C-32.42287631 -4.52381523 -12.16988927 -6.22156688 0 0 Z " fill="#F89F2B" transform="translate(414.26171875,345.15625)"/>
<path d="M0 0 C4.41720577 -0.16360021 8.28299851 -0.02548661 12.59375 0.96875 C18.10448705 2.11652318 23.50993867 2.43572827 29.125 2.625 C30.55972656 2.68300781 30.55972656 2.68300781 32.0234375 2.7421875 C34.34878199 2.83520128 36.67414335 2.92103771 39 3 C39 3.66 39 4.32 39 5 C54.66913391 4.7082188 70.10587978 4.23235487 85.63476562 1.9284668 C86.55193359 1.79480713 87.46910156 1.66114746 88.4140625 1.5234375 C89.2076416 1.39888184 90.0012207 1.27432617 90.81884766 1.14599609 C93.11369996 0.99238946 94.81503902 1.32066332 97 2 C90.23514355 3.6120509 83.95041086 4.26618595 77 4 C77 4.66 77 5.32 77 6 C59.84 6 42.68 6 25 6 C25 5.34 25 4.68 25 4 C23.94941406 3.95101563 22.89882812 3.90203125 21.81640625 3.8515625 C14.34124509 3.46623574 7.26403803 2.94572447 0 1 C0 0.67 0 0.34 0 0 Z " fill="#FABD6F" transform="translate(202,395)"/>
<path d="M0 0 C-6.76485645 1.6120509 -13.04958914 2.26618595 -20 2 C-20 2.66 -20 3.32 -20 4 C-22.64 3.67 -25.28 3.34 -28 3 C-28 2.67 -28 2.34 -28 2 C-24.08488185 1.46705432 -20.16774466 0.95075145 -16.25 0.4375 C-15.13882812 0.28603516 -14.02765625 0.13457031 -12.8828125 -0.02148438 C-11.81289063 -0.16005859 -10.74296875 -0.29863281 -9.640625 -0.44140625 C-8.65610352 -0.57232666 -7.67158203 -0.70324707 -6.65722656 -0.83813477 C-4.14200979 -0.99134946 -2.37853466 -0.77228356 0 0 Z " fill="#FABE73" transform="translate(299,397)"/>
<path d="M0 0 C-6.65956879 4.50500242 -13.24108504 4.13800442 -21 4 C-21.33 3.34 -21.66 2.68 -22 2 C-21.04738281 1.95101563 -20.09476563 1.90203125 -19.11328125 1.8515625 C-17.85902344 1.77679688 -16.60476562 1.70203125 -15.3125 1.625 C-13.45044922 1.52058594 -13.45044922 1.52058594 -11.55078125 1.4140625 C-7.10203285 0.89528656 -4.27094102 -1.42364701 0 0 Z " fill="#8C8C8C" transform="translate(253,292)"/>
<path d="M0 0 C-1.39750048 3.15835107 -3.05198234 5.32272825 -5.5 7.75 C-6.41265625 8.67039063 -6.41265625 8.67039063 -7.34375 9.609375 C-9 11 -9 11 -11 11 C-10.45418801 7.20450741 -8.94590705 5.69020705 -6.0625 3.25 C-5.35222656 2.63640625 -4.64195312 2.0228125 -3.91015625 1.390625 C-2 0 -2 0 0 0 Z " fill="#CACACA" transform="translate(227,226)"/>
<path d="M0 0 C0.33 0 0.66 0 1 0 C1.30654742 8.61738853 1.39589303 15.93475404 -2 24 C-3.1700097 20.08263419 -2.69584017 17.02040985 -2 13 C-1.34 13 -0.68 13 0 13 C0 8.71 0 4.42 0 0 Z " fill="#FCE1C1" transform="translate(416,347)"/>
<path d="M0 0 C0.33 0.66 0.66 1.32 1 2 C-0.07507629 3.29854721 -1.16043736 4.58858361 -2.25 5.875 C-2.85328125 6.59429687 -3.4565625 7.31359375 -4.078125 8.0546875 C-5.97087634 9.97052118 -7.53657727 10.96449045 -10 12 C-8.52278578 8.54798361 -6.56205999 6.35038064 -3.875 3.75 C-3.15054688 3.04359375 -2.42609375 2.3371875 -1.6796875 1.609375 C-1.12539062 1.07828125 -0.57109375 0.5471875 0 0 Z " fill="#3A3A3A" transform="translate(174,99)"/>
<path d="M0 0 C0.33 1.32 0.66 2.64 1 4 C1.66 4 2.32 4 3 4 C3.66 6.64 4.32 9.28 5 12 C2.13285809 10.56642904 1.39661301 8.85670843 0 6 C-0.1875 2.6875 -0.1875 2.6875 0 0 Z " fill="#888888" transform="translate(211,273)"/>
</svg>
