<?xml version="1.0" encoding="UTF-8"?>
<svg version="1.1" xmlns="http://www.w3.org/2000/svg" width="2160" height="2160">
<path d="M0 0 C712.8 0 1425.6 0 2160 0 C2160 712.8 2160 1425.6 2160 2160 C1447.2 2160 734.4 2160 0 2160 C0 1447.2 0 734.4 0 0 Z " fill="#6552B4" transform="translate(0,0)"/>
<path d="M0 0 C487.74 0 975.48 0 1478 0 C1478 34.98 1478 69.96 1478 106 C1251.62 106 1025.24 106 792 106 C792.11639545 331.41647826 792.11639545 331.41647826 792.25098133 556.83294392 C792.25210918 558.58478343 792.25323693 560.33662295 792.25436461 562.08846247 C792.25493005 562.96685112 792.2554955 563.84523976 792.25607808 564.75024624 C792.27604772 595.78050224 792.29588893 626.81075832 792.31550507 657.84101455 C792.31737829 660.80242347 792.31925489 663.76383239 792.3211323 666.7252413 C792.34983668 712.02294195 792.37690655 757.32064282 792.39910889 802.61834717 C792.39958565 803.59098306 792.40006241 804.56361894 792.40055362 805.56572864 C792.4082293 821.24550305 792.41576453 836.92527751 792.42328111 852.60505199 C792.44495778 897.81871232 792.46768883 943.03237104 792.49726295 988.24602699 C792.49787182 989.17764365 792.49848068 990.10926032 792.499108 991.06910779 C792.51249909 1011.53023538 792.52642319 1031.99136257 792.54085055 1052.45248945 C792.54664804 1060.6878659 792.55236894 1068.92324241 792.55806351 1077.15861893 C792.55868856 1078.05989263 792.55931362 1078.96116634 792.55995762 1079.88975137 C792.57999213 1108.83238297 792.59381629 1137.77501336 792.60431816 1166.71764986 C792.61494352 1195.92113327 792.63179235 1225.12460615 792.65705032 1254.32808076 C792.66055527 1258.38229786 792.66399035 1262.43651501 792.66738319 1266.49073219 C792.6680507 1267.28533374 792.66871821 1268.07993529 792.66940594 1268.89861567 C792.67970995 1281.37853399 792.68347638 1293.85844496 792.68437787 1306.33836713 C792.68540769 1318.67156254 792.69367649 1331.00473672 792.70915592 1343.33792261 C792.71721697 1349.91022063 792.72220706 1356.48248925 792.71827881 1363.05479436 C792.70549176 1388.02776408 792.90039157 1412.9652101 793.87677956 1437.92144203 C793.91451839 1438.91926664 793.95225723 1439.91709125 793.99113967 1440.94515296 C795.75244646 1486.22918497 799.90248547 1534.74357103 814.04296875 1578.06640625 C814.70773987 1580.10413322 815.33264253 1582.15512574 815.92578125 1584.21484375 C817.87395226 1590.95727923 820.2788465 1597.20985766 823.3359375 1603.52734375 C824.48640785 1605.92820794 825.56821942 1608.3054954 826.6015625 1610.75390625 C836.99343517 1634.85797445 853.91499511 1656.17022319 872 1675 C872.56702637 1675.5995752 873.13405273 1676.19915039 873.71826172 1676.81689453 C883.05543612 1686.66183068 892.95607251 1695.12469397 904 1703 C904.61278809 1703.44150391 905.22557617 1703.88300781 905.85693359 1704.33789062 C921.89441383 1715.79511931 939.66162698 1724.71495446 957.55688477 1732.87451172 C959.35876703 1733.70459838 961.15237455 1734.55270359 962.94116211 1735.41064453 C970.94423961 1739.2113315 979.0466477 1742.29381301 987.4375 1745.125 C988.64470703 1745.54136719 989.85191406 1745.95773437 991.09570312 1746.38671875 C1005.87067747 1751.43028945 1020.61906899 1755.39722432 1036 1758 C1037.06863281 1758.18626953 1038.13726563 1758.37253906 1039.23828125 1758.56445312 C1078.84357559 1765.18028655 1120.22937967 1763.47759296 1160 1759 C1162.13145499 1758.78071062 1164.26296176 1758.5619236 1166.39453125 1758.34375 C1204.82999101 1754.17901458 1243.77023702 1745.36330726 1280.48828125 1733.44140625 C1284.98557882 1731.98642684 1289.51869811 1730.67581809 1294.0625 1729.375 C1299.36282269 1727.84789044 1304.47484185 1726.11341447 1309.5546875 1723.9609375 C1312.45332099 1722.82185789 1315.38848346 1721.94504035 1318.375 1721.0625 C1322.85330828 1719.73168197 1327.0912064 1718.17595021 1331.375 1716.3125 C1335.67757607 1714.45223501 1339.33081976 1713.3183532 1344 1713 C1344 1712.34 1344 1711.68 1344 1711 C1344.648479 1710.764021 1345.29695801 1710.52804199 1345.96508789 1710.28491211 C1357.40653237 1706.1044038 1368.70166831 1701.88357224 1379.6640625 1696.5625 C1384.05501606 1694.50584728 1388.54568859 1692.80440726 1393.09765625 1691.140625 C1396.17694249 1689.93046137 1399.05826512 1688.51352816 1402 1687 C1403.19714581 1686.39950242 1404.39510556 1685.80062557 1405.59375 1685.203125 C1407.6052603 1684.19749845 1409.61664219 1683.19161868 1411.62768555 1682.18505859 C1414.91161962 1680.54179561 1418.19721152 1678.90238802 1421.48828125 1677.2734375 C1429.71311579 1673.1948474 1437.84309837 1668.95425722 1445.95703125 1664.66015625 C1449.32121104 1662.88089057 1452.69355021 1661.11882092 1456.07421875 1659.37109375 C1487.1416251 1643.28872579 1517.40978284 1625.46758411 1546.76806641 1606.44580078 C1548.79350374 1605.13376404 1550.82307461 1603.82856844 1552.85546875 1602.52734375 C1557.77233184 1599.37775415 1562.67846208 1596.21403372 1567.55859375 1593.0078125 C1568.3374292 1592.49822998 1569.11626465 1591.98864746 1569.91870117 1591.46362305 C1571.44613175 1590.46373106 1572.97113451 1589.46011821 1574.4934082 1588.45239258 C1575.18136475 1588.00275146 1575.86932129 1587.55311035 1576.578125 1587.08984375 C1577.19075195 1586.68628662 1577.80337891 1586.28272949 1578.43457031 1585.86694336 C1580 1585 1580 1585 1582 1585 C1582.46768403 1611.25976357 1582.82011366 1637.51890125 1583.03624344 1663.78199387 C1583.13927655 1675.97733709 1583.27966929 1688.17008965 1583.50878906 1700.36376953 C1583.70845372 1710.99494679 1583.83723404 1721.62424808 1583.8817699 1732.25724816 C1583.90779934 1737.88601777 1583.96870581 1743.50942224 1584.11460114 1749.13646698 C1584.9697794 1783.41064258 1584.9697794 1783.41064258 1580.04033279 1791.02837753 C1575.44688134 1795.44970678 1570.43616836 1797.66522105 1564.33971882 1799.31293106 C1561.08915344 1800.26747418 1558.68028881 1801.79674826 1555.8671875 1803.6640625 C1546.22452849 1809.39366407 1536.52863296 1814.99574529 1526.69921875 1820.3984375 C1523.22595671 1822.31116178 1519.77534498 1824.26043902 1516.33203125 1826.2265625 C1506.59246869 1831.78652689 1496.85376808 1837.2121421 1486.7734375 1842.12890625 C1483.55862066 1843.7031209 1480.4122513 1845.38247212 1477.26806641 1847.0925293 C1466.73302656 1852.80867419 1455.86223641 1857.77920876 1444.9765625 1862.78125 C1438.82974405 1865.60660021 1432.72165431 1868.50583096 1426.625 1871.4375 C1419.9450289 1874.6413018 1413.23994871 1877.70464076 1406.3984375 1880.55078125 C1403.65926092 1881.71886689 1400.97128824 1882.94511223 1398.2734375 1884.203125 C1390.06932145 1887.94751418 1381.64590011 1891.15381738 1373.25 1894.4375 C1370.77683492 1895.40778277 1368.30399844 1896.37889844 1365.83125305 1897.35025024 C1364.20716637 1897.98796844 1362.58280794 1898.62499506 1360.95817566 1899.26132202 C1356.64499814 1900.95230759 1352.34235649 1902.66604771 1348.04942322 1904.4077301 C1340.34388696 1907.52817898 1332.55817613 1910.3269301 1324.6875 1913 C1323.41503942 1913.434903 1322.14266095 1913.87004628 1320.87036133 1914.30541992 C1317.24893785 1915.54295267 1313.6248021 1916.77239617 1310 1918 C1309.07058594 1918.31533691 1308.14117188 1918.63067383 1307.18359375 1918.95556641 C1302.13178242 1920.66618562 1297.07177935 1922.34952699 1292 1924 C1290.79214844 1924.39316406 1289.58429688 1924.78632812 1288.33984375 1925.19140625 C1277.2057977 1928.73884679 1265.96027908 1931.89508154 1254.71875 1935.08203125 C1250.15211493 1936.37908246 1245.59845143 1937.70940709 1241.05517578 1939.08569336 C1225.18833619 1943.87762666 1208.96954891 1947.28346324 1192.76147461 1950.69897461 C1187.03127801 1951.90839577 1181.31410381 1953.14560141 1175.6171875 1954.50390625 C1157.12211601 1958.87943728 1138.49466648 1961.68579832 1119.68847656 1964.3359375 C1115.58891609 1964.91390764 1111.4934808 1965.51587472 1107.3984375 1966.125 C1018.93613566 1979.10318784 928.37565481 1980.77133818 840.05224609 1966.33413696 C838.25842121 1966.04207491 836.46329442 1965.75803192 834.66796875 1965.4753418 C826.74297146 1964.20726277 818.90223074 1962.58742453 811.0625 1960.875 C810.37789703 1960.72615356 809.69329407 1960.57730713 808.98794556 1960.4239502 C795.20861682 1957.41187937 781.65312321 1953.77048383 768.09643555 1949.87939453 C764.17572987 1948.76590546 760.24134587 1947.70687027 756.30273438 1946.65869141 C753.61092961 1945.88870739 751.02191586 1944.9043782 748.41796875 1943.87890625 C745.02650975 1942.64614652 741.57508068 1941.6163385 738.125 1940.5625 C732.8896675 1938.95406166 727.802317 1937.20832566 722.74609375 1935.09375 C719.07852122 1933.63298142 715.35437702 1932.35560057 711.625 1931.0625 C704.63231176 1928.62567725 697.80696934 1925.91860466 691 1923 C687.89814099 1921.73447156 684.79602524 1920.46968098 681.69140625 1919.2109375 C679 1918 679 1918 676.51171875 1916.484375 C673.81551033 1914.89097033 671.20431707 1913.90824561 668.25 1912.875 C660.44070963 1909.94762162 653.27321963 1906.02274115 645.95703125 1902.04736328 C643.31493153 1900.6333653 640.63066892 1899.31365169 637.9375 1898 C614.74508869 1886.45049048 592.30470584 1872.46868712 571.16162109 1857.52197266 C568.95857541 1855.97083342 566.74099113 1854.4425948 564.51953125 1852.91796875 C556.6403019 1847.48081434 549.14426773 1841.81190689 541.92578125 1835.5234375 C539.25665409 1833.22135987 536.53229324 1831.03758123 533.75 1828.875 C529.57059866 1825.56799797 525.85705882 1821.95842399 522.140625 1818.14453125 C520.20118348 1816.2015506 518.21391839 1814.40397724 516.125 1812.625 C508.0242075 1805.63544942 500.81522404 1798.02106216 494.16015625 1789.65234375 C492.13289265 1787.16317198 490.01170819 1784.83691184 487.8125 1782.5 C446.89513373 1737.24183488 429.67418083 1676.65317851 419 1618 C418.71029399 1616.45169954 418.41999953 1614.90350899 418.12890625 1613.35546875 C414.43925162 1593.46523494 412.19740496 1573.34291488 410.21936035 1553.22076416 C409.98625887 1550.86088728 409.74847446 1548.50150444 409.51074219 1546.14208984 C407.29722456 1523.9739667 405.67585136 1501.82553729 404.89393806 1479.55937099 C404.85181619 1478.38777534 404.80969432 1477.21617968 404.76629602 1476.00908112 C403.82974589 1449.44465118 403.71949483 1422.89521213 403.75546761 1396.317065 C403.76176567 1390.12678411 403.75829346 1383.93651325 403.75530048 1377.74623112 C403.74945515 1364.98119549 403.752808 1352.21617845 403.76158905 1339.45114517 C403.77041769 1326.55927378 403.77472596 1313.66741199 403.77378464 1300.77553749 C403.77372725 1299.95419893 403.77366987 1299.13286037 403.77361075 1298.28663277 C403.7732979 1294.0969137 403.77291401 1289.90719464 403.77250507 1285.71747559 C403.76970709 1255.57215554 403.77649212 1225.426844 403.78853989 1195.28152657 C403.80042524 1165.47072876 403.80809812 1135.6599346 403.81024551 1105.84913445 C403.81034875 1104.45527473 403.81034875 1104.45527473 403.81045407 1103.03325624 C403.81108056 1094.54483565 403.81165593 1086.05641506 403.81217002 1077.56799447 C403.81344805 1056.47615864 403.81536622 1035.38432289 403.81772041 1014.29248714 C403.81788037 1012.85251277 403.81788037 1012.85251277 403.81804355 1011.383448 C403.82327395 964.79965733 403.83588382 918.21586905 403.84912109 871.63208008 C403.85370483 855.48675539 403.85825575 839.34143069 403.8626709 823.19610596 C403.8629448 822.19463435 403.8632187 821.19316275 403.86350089 820.16134352 C403.87621272 773.51763621 403.88364785 726.87392849 403.88974049 680.2302199 C403.89013661 677.19832944 403.890535 674.16643899 403.89093385 671.13454853 C403.89357364 651.04035813 403.8961229 630.94616772 403.89861157 610.8519773 C403.90356327 570.87692146 403.90904658 530.90186569 403.91489566 490.92680996 C403.91517414 489.02352553 403.91545225 487.12024109 403.91572999 485.21695665 C403.92427907 426.64574091 403.93522486 368.07452598 403.94869995 309.50331116 C403.94924162 307.14291758 403.94978327 304.78252401 403.95032473 302.42213044 C403.96541866 236.9480866 403.98303676 171.47404338 404 106 C270.68 106 137.36 106 0 106 C0 71.02 0 36.04 0 0 Z " fill="#FEFEFE" transform="translate(334,0)"/>
<path d="M0 0 C2.0632984 0.06041869 4.12577414 0.14931638 6.1875 0.25 C7.91033203 0.31960938 7.91033203 0.31960938 9.66796875 0.390625 C13.48260114 1.08826 15.20961189 2.37251591 18 5 C11.69632197 4.41632611 6.01339937 2.95928381 0 1 C0 0.67 0 0.34 0 0 Z " fill="#8D7AC9" transform="translate(1336,1750)"/>
<path d="M0 0 C1.32 0 2.64 0 4 0 C3.88590407 1.45922693 3.75834456 2.91740598 3.625 4.375 C3.55539062 5.18710938 3.48578125 5.99921875 3.4140625 6.8359375 C3 9 3 9 1 11 C0.67 7.37 0.34 3.74 0 0 Z " fill="#5D44B1" transform="translate(1126,106)"/>
<path d="M0 0 C-5.61 -0.33 -11.22 -0.66 -17 -1 C-17 -1.33 -17 -1.66 -17 -2 C-15.2300132 -2.19532961 -13.45895721 -2.38098882 -11.6875 -2.5625 C-10.70136719 -2.66691406 -9.71523437 -2.77132813 -8.69921875 -2.87890625 C-4.91210564 -3.04880568 -3.15129762 -2.10086508 0 0 Z " fill="#7E69BC" transform="translate(1402,1762)"/>
<path d="M0 0 C0.33 0.66 0.66 1.32 1 2 C2.90178785 2.60061233 2.90178785 2.60061233 5 3 C5.99 3.33 6.98 3.66 8 4 C8 4.99 8 5.98 8 7 C4.00499382 5.6302836 1.19990508 3.74277578 -2 1 C-1.34 0.67 -0.68 0.34 0 0 Z " fill="#7F67C8" transform="translate(1244,1705)"/>
<path d="M0 0 C0.33 0.66 0.66 1.32 1 2 C1.66 2.33 2.32 2.66 3 3 C-0.81489674 4.46726798 -3.29011622 3.43336419 -7 2 C-7 1.67 -7 1.34 -7 1 C-3.535 0.505 -3.535 0.505 0 0 Z " fill="#7760BF" transform="translate(1335,1746)"/>
<path d="M0 0 C1.32 0 2.64 0 4 0 C4 0.66 4 1.32 4 2 C5.32 2 6.64 2 8 2 C8 2.99 8 3.98 8 5 C4.62496331 3.8141763 2.35277269 2.72426311 0 0 Z " fill="#856DCD" transform="translate(1259,1716)"/>
<path d="M0 0 C2.64 0 5.28 0 8 0 C7.01 1.485 7.01 1.485 6 3 C3.5625 2.625 3.5625 2.625 1 2 C0.67 1.34 0.34 0.68 0 0 Z " fill="#5C4AB3" transform="translate(350,106)"/>
</svg>
